# xmcd
# 
# Track frame offsets:
#     150
#     15447
#     30749
#     50250
#     66106
# 
# Disc length: 1117
# 
# Revision: 0
# Processed by: cddbd v1.5.2PL0 Copyright (c) Steve Scherf et al.
# Submitted via: fre:ac v1.0.17
# 
DISCID=34045b05
DTITLE=Undergone - Devil In You
DYEAR=2011
DGENRE=Rock
TTITLE0=Indestructible
TTITLE1=Devil In You
TTITLE2=One Day At  A Time
TTITLE3=Own Way
TTITLE4=Payback
EXTD=
EXTT0=
EXTT1=
EXTT2=
EXTT3=
EXTT4=
PLAYORDER=
